<svg enable-background="new 0 0 1065.46204 300" height="300" viewBox="0 0 1065.46204 300" width="1065.46204" xmlns="http://www.w3.org/2000/svg"><circle cx="534" cy="150.498" fill="#fff" r="150"/><path d="m512.35895 130.74185v105.82445h43.07306v-105.82445h64.92981v-43.06941h-172.72242v43.06941z"/><path d="m398.45023 150.49826c.00616-74.85767 60.68594-135.53531 135.55099-135.53964 74.862.00433 135.54303 60.68197 135.54858 135.53964-.00555 74.85735-60.68658 135.53348-135.54858 135.53964-74.86505-.00616-135.54483-60.68229-135.55099-135.53964zm49.26452-86.27976c-22.09451 22.10338-35.73868 52.5649-35.73984 86.27976.00116 33.71516 13.64532 64.17639 35.73984 86.28038 22.10312 22.08965 52.56589 35.73338 86.28647 35.73528 33.71631-.00189 64.18091-13.64563 86.28522-35.73528 22.0921-22.10399 35.73688-52.56522 35.73871-86.28038-.00183-33.71486-13.64661-64.17638-35.73871-86.27976-22.10431-22.09052-52.56891-35.73371-86.28522-35.73616-33.72058.00245-64.18335 13.64564-86.28647 35.73616z"/></svg>